# xmcd
# 
# Track frame offsets:
#     182
#     65720
#     121745
#     148157
#     201712
# 
# Disc length: 3583
# 
# Revision: 4
# Processed by: cddbd v1.5.2PL0 Copyright (c) Steve Scherf et al.
# Submitted via: fre:ac v1.0.17
# 
DISCID=520dfd05
DTITLE=Daniel Barenboim and Chicago Symphony Orchestra  - Tchaikovsky - Symphony No. 5 in E minor Op64 and Overture 1812 Op49
DYEAR=1995
DGENRE=Classical
TTITLE0=1st mov: Andante - Allegro con anima
TTITLE1=2nd mov: Andante cantabile, con alcuna licenza
TTITLE2=3rd mov: Valse: Allegro moderato
TTITLE3=4th mov: Finale: Andante maestoso - Allegro vivace
TTITLE4=Overture "1812", opus 49
EXTD=Chicago Symphony Orchestra under Daniel Barenboim YEAR: 1995
EXTT0=
EXTT1=
EXTT2=
EXTT3=
EXTT4=
PLAYORDER=
